<!DOCTYPE svg PUBLIC "-//W3C//DTD SVG 20010904//EN" "http://www.w3.org/TR/2001/REC-SVG-20010904/DTD/svg10.dtd">
<svg version="1.0" xmlns="http://www.w3.org/2000/svg" width="400px" height="76px" viewBox="0 0 4000 760" preserveAspectRatio="xMidYMid meet">
<g id="layer1" fill="#1d77bd" stroke="none">
 <path d="M3407 656 c-70 -19 -75 -28 -49 -81 l22 -45 39 21 c45 23 84 22 89 -3 2 -12 -11 -20 -52 -32 -87 -26 -114 -75 -81 -152 25 -61 123 -90 218 -63 43 12 45 19 16 65 -18 30 -23 32 -47 23 -31 -12 -75 -3 -70 13 2 6 29 19 58 29 30 10 63 28 72 39 22 27 23 91 3 129 -28 55 -131 82 -218 57z"/>
 <path d="M2050 638 c-88 -60 -110 -163 -57 -261 39 -71 129 -103 202 -72 26 10 41 12 43 5 2 -5 32 -10 68 -10 l64 0 0 175 0 175 -65 0 c-39 0 -65 -4 -65 -11 0 -5 -10 -3 -22 5 -35 25 -128 21 -168 -6z m155 -94 c22 -9 46 -59 38 -81 -19 -54 -84 -72 -123 -33 -55 55 9 143 85 114z"/>
 <path d="M249 621 c-23 -23 -29 -38 -29 -71 0 -52 13 -76 50 -95 24 -13 94 -15 449 -15 242 0 430 4 445 10 36 13 61 57 60 104 -1 31 -8 46 -33 68 l-31 28 -441 0 -441 0 -29 -29z"/>
 <path d="M1292 403 c-40 -137 -73 -251 -72 -255 0 -5 31 -8 69 -8 l70 0 15 53 c8 28 27 99 42 156 l28 105 51 -155 52 -154 56 -3 56 -3 47 151 c26 82 50 150 54 150 3 0 24 -67 45 -150 l40 -150 73 0 c65 0 73 2 68 18 -6 22 -90 302 -122 410 l-25 82 -72 0 -73 0 -44 -135 c-27 -81 -47 -130 -52 -122 -4 6 -26 67 -49 135 l-41 122 -71 0 -72 0 -73 -247z"/>
 <path d="M2430 475 l0 -175 65 0 65 0 0 175 0 175 -65 0 -65 0 0 -175z"/>
 <path d="M2620 530 c0 -113 -1 -120 -20 -120 -18 0 -20 -7 -20 -55 0 -48 2 -55 20 -55 17 0 20 -7 20 -50 l0 -50 65 0 65 0 0 50 0 50 35 0 35 0 0 55 0 55 -35 0 -35 0 0 120 0 120 -65 0 -65 0 0 -120z"/>
 <path d="M2850 395 l0 -255 70 0 70 0 0 200 0 200 75 0 75 0 0 55 0 55 -145 0 -145 0 0 -255z"/>
 <path d="M3180 475 l0 -175 65 0 65 0 0 175 0 175 -65 0 -65 0 0 -175z"/>
 <path d="M3700 530 c0 -113 -1 -120 -20 -120 -18 0 -20 -7 -20 -55 0 -48 2 -55 20 -55 17 0 20 -7 20 -50 l0 -50 65 0 65 0 0 50 c0 49 1 50 30 50 30 0 30 1 30 55 0 54 0 55 -30 55 l-30 0 0 120 0 120 -65 0 -65 0 0 -120z"/>
 <path d="M151 324 c-26 -22 -31 -33 -31 -71 0 -55 12 -78 50 -98 24 -13 94 -15 449 -15 242 0 430 4 445 10 36 13 61 57 60 104 -1 31 -8 46 -33 68 l-31 28 -439 0 -439 0 -31 -26z"/>
 <path d="M2446 229 c-46 -36 -26 -110 34 -124 38 -9 80 27 80 68 0 38 -7 50 -37 66 -31 16 -47 14 -77 -10z"/>
 <path d="M3196 229 c-46 -36 -26 -110 34 -124 38 -9 80 27 80 68 0 38 -7 50 -37 66 -31 16 -47 14 -77 -10z"/>
 </g>

</svg>